<svg width="1200" height="630" viewBox="0 0 1200 630" xmlns="http://www.w3.org/2000/svg" role="img" aria-label="AssistentePro - Assistente Pessoal">
  <title>AssistentePro — Assistente Pessoal</title>
  <defs>
    <linearGradient id="bg" x1="0" y1="0" x2="0" y2="1">
      <stop offset="0%" stop-color="#0b1220"/>
      <stop offset="100%" stop-color="#0a0f1a"/>
    </linearGradient>
    <linearGradient id="metal" x1="0" y1="0" x2="1" y2="1">
      <stop offset="0%" stop-color="#cfd6e3"/>
      <stop offset="50%" stop-color="#aeb7c7"/>
      <stop offset="100%" stop-color="#8f99ad"/>
    </linearGradient>
    <linearGradient id="metalDark" x1="0" y1="0" x2="1" y2="1">
      <stop offset="0%" stop-color="#7c869a"/>
      <stop offset="100%" stop-color="#596276"/>
    </linearGradient>
    <radialGradient id="glowA" cx="50%" cy="50%" r="60%">
      <stop offset="0%" stop-color="#ffb454" stop-opacity="1"/>
      <stop offset="45%" stop-color="#ff8a00" stop-opacity="1"/>
      <stop offset="100%" stop-color="#ff6a00" stop-opacity="0.2"/>
    </radialGradient>
    <radialGradient id="visorGlow" cx="50%" cy="50%" r="70%">
      <stop offset="0%" stop-color="#121826"/>
      <stop offset="100%" stop-color="#0a0f1a"/>
    </radialGradient>
    <filter id="soft" x="-20%" y="-20%" width="140%" height="140%">
      <feGaussianBlur stdDeviation="6" result="b"/>
      <feMerge><feMergeNode in="b"/><feMergeNode in="SourceGraphic"/></feMerge>
    </filter>
    <filter id="outerGlow" x="-40%" y="-40%" width="180%" height="180%">
      <feGaussianBlur stdDeviation="12" result="b"/>
      <feColorMatrix type="matrix" values="1 0 0 0 0  0 1 0 0 0  0 0 1 0 0  0 0 0 0.6 0"/>
      <feMerge><feMergeNode/><feMergeNode in="SourceGraphic"/></feMerge>
    </filter>
    <style>
      :root{
        --primary:#22c55e;
        --orange:#ff8a00;
        --orange-2:#ffb454;
        --text:#e8eef8;
        --muted:#9fb0c7;
        --card:#0f1726;
        --stroke:#1e2a3f;
      }
      text{ font-family: Inter, system-ui, -apple-system, Segoe UI, Roboto, Arial, sans-serif }
    </style>
  </defs>

  <rect width="1200" height="630" fill="url(#bg)"/>

  <g opacity="0.22" stroke="#334155" stroke-width="2" fill="none">
    <path d="M220 250 h140 m-20 -20 v40 m40 -40 v20 h60 v-20 m40 0 v40" />
    <path d="M980 250 h-140 m20 -20 v40 m-40 -40 v20 h-60 v-20 m-40 0 v40" />
    <path d="M300 320 h200 m40 0 h100 m40 0 h180" opacity="0.18"/>
    <circle cx="360" cy="250" r="4" fill="#3b82f6"/>
    <circle cx="840" cy="250" r="4" fill="#3b82f6"/>
    <circle cx="600" cy="320" r="4" fill="#3b82f6"/>
  </g>

  <g transform="translate(350,95)">
    <ellipse cx="250" cy="360" rx="250" ry="55" fill="#07101b" opacity="0.5" filter="url(#soft)"/>

    <g transform="translate(190,0)">
      <rect x="0" y="20" rx="30" ry="30" width="120" height="150" fill="url(#metal)" stroke="#6b7280" stroke-width="2"/>
      <rect x="-18" y="78" width="18" height="48" rx="8" fill="#ff8a00" filter="url(#outerGlow)"/>
      <rect x="120" y="78" width="18" height="48" rx="8" fill="#ff8a00" filter="url(#outerGlow)"/>
      <rect x="18" y="58" width="84" height="56" rx="16" fill="url(#visorGlow)" stroke="#30384a" stroke-width="2"/>
      <circle cx="44" cy="86" r="9" fill="#ffb454" filter="url(#outerGlow)"/>
      <circle cx="76" cy="86" r="9" fill="#ffb454" filter="url(#outerGlow)"/>
      <rect x="42" y="124" width="36" height="18" rx="6" fill="url(#metalDark)"/>
      <g transform="translate(44,170)">
        <rect x="0" y="-18" width="16" height="24" rx="4" fill="url(#metalDark)"/>
        <rect x="20" y="-18" width="16" height="24" rx="4" fill="url(#metalDark)"/>
        <rect x="40" y="-18" width="16" height="24" rx="4" fill="url(#metalDark)"/>
      </g>
    </g>

    <g transform="translate(80,170)">
      <path d="M60,10
               C40,120 10,210 0,290
               L70,290 C100,210 140,140 190,110
               C240,140 280,210 310,290
               L380,290 C370,210 340,120 320,10
               C230,-10 140,-10 60,10 Z"
            fill="#1d293b" stroke="#2b3a54" stroke-width="3"/>
      <path d="M70,290 C110,200 150,140 210,110 L150,40 C110,70 90,110 70,170 Z" fill="#0f1726" stroke="#2b3a54" stroke-width="2"/>
      <path d="M370,290 C330,200 290,140 230,110 L290,40 C330,70 350,110 370,170 Z" fill="#0f1726" stroke="#2b3a54" stroke-width="2"/>

      <path d="M150,40 L210,110 L270,40 C230,20 190,20 150,40 Z" fill="#e6eef8"/>
      <rect x="150" y="40" width="120" height="250" rx="18" fill="#f1f5f9" />
      <ellipse cx="210" cy="160" rx="120" ry="120" fill="url(#glowA)" opacity="0.25" filter="url(#outerGlow)"/>

      <g transform="translate(140,90)">
        <path d="M70,150 L110,0 L150,150 L130,150 L120,120 L100,120 L90,150 Z M107,100 L113,80 L117,100 Z"
              fill="#ff8a00" stroke="#ffb454" stroke-width="3" filter="url(#outerGlow)"/>
      </g>

      <g>
        <g transform="translate(20,180)">
          <rect x="0" y="10" width="70" height="60" rx="20" fill="url(#metal)" stroke="#6b7280" stroke-width="2"/>
          <rect x="12" y="20" width="46" height="14" rx="7" fill="#cfd6e3" stroke="#6b7280" stroke-width="1"/>
          <rect x="12" y="38" width="46" height="14" rx="7" fill="#cfd6e3" stroke="#6b7280" stroke-width="1"/>
          <circle cx="70" cy="22" r="10" fill="#ff8a00" filter="url(#outerGlow)"/>
        </g>
        <g transform="translate(330,180)">
          <rect x="0" y="10" width="70" height="60" rx="20" fill="url(#metal)" stroke="#6b7280" stroke-width="2"/>
          <rect x="12" y="20" width="46" height="14" rx="7" fill="#cfd6e3" stroke="#6b7280" stroke-width="1"/>
          <rect x="12" y="38" width="46" height="14" rx="7" fill="#cfd6e3" stroke="#6b7280" stroke-width="1"/>
          <circle cx="0" cy="22" r="10" fill="#ff8a00" filter="url(#outerGlow)"/>
        </g>
      </g>
    </g>
  </g>

  <g transform="translate(190,475)">
    <text x="0" y="0" font-size="86" font-weight="800" fill="var(--text)">Assistente</text>
    <text x="535" y="0" font-size="86" font-weight="600" fill="#e8eef8" opacity="0.9">Pro</text>
    <text x="0" y="72" font-size="40" font-weight="600" fill="var(--muted)">Assistente Pessoal</text>
  </g>
</svg>
