<svg xmlns="http://www.w3.org/2000/svg" viewBox="0 0 512 512">
  <defs>
    <linearGradient id="bg" x1="0" x2="1" y1="0" y2="1">
      <stop offset="0" stop-color="#0f172a" />
      <stop offset="1" stop-color="#1e293b" />
    </linearGradient>
    <linearGradient id="gold" x1="0" x2="1" y1="0" y2="1">
      <stop offset="0" stop-color="#f59e0b" />
      <stop offset="1" stop-color="#fbbf24" />
    </linearGradient>
  </defs>
  <rect width="512" height="512" rx="96" fill="url(#bg)" />
  <circle cx="412" cy="120" r="68" fill="#0b1222" opacity="0.45" />
  <circle cx="96" cy="420" r="96" fill="#0b1222" opacity="0.35" />

  <!-- Robot head -->
  <rect x="176" y="92" width="160" height="120" rx="36" fill="#111827" stroke="#334155" stroke-width="6" />
  <circle cx="224" cy="150" r="16" fill="url(#gold)" />
  <circle cx="288" cy="150" r="16" fill="url(#gold)" />
  <rect x="220" y="182" width="72" height="12" rx="6" fill="#334155" />

  <!-- Neck -->
  <rect x="236" y="212" width="40" height="28" rx="8" fill="#1f2937" />

  <!-- Suit torso -->
  <path d="M140 396 L188 260 L324 260 L372 396 Z" fill="#0f172a" stroke="#334155" stroke-width="6" />
  <path d="M188 260 L256 334 L324 260" fill="#111827" />
  <path d="M208 260 L256 314 L304 260" fill="#0b1222" />

  <!-- Shirt and emblem -->
  <rect x="224" y="288" width="64" height="72" rx="10" fill="#f8fafc" />
  <path d="M232 356 L256 306 L280 356 Z" fill="#e2e8f0" />
  <circle cx="256" cy="318" r="24" fill="url(#gold)" />
  <path d="M248 328 L256 300 L264 328" stroke="#0f172a" stroke-width="6" stroke-linecap="round" stroke-linejoin="round" fill="none" />

  <!-- Arms -->
  <rect x="112" y="300" width="52" height="76" rx="20" fill="#111827" stroke="#334155" stroke-width="6" />
  <rect x="348" y="300" width="52" height="76" rx="20" fill="#111827" stroke="#334155" stroke-width="6" />

  <!-- Money accents -->
  <rect x="76" y="122" width="78" height="30" rx="10" fill="url(#gold)" opacity="0.9" />
  <rect x="360" y="414" width="94" height="34" rx="10" fill="url(#gold)" opacity="0.8" />
</svg>
